<?xml version="1.0" encoding="UTF-8"?>
<svg version="1.1" xmlns="http://www.w3.org/2000/svg" width="236" height="236">
<path d="M0 0 C35.64 0 71.28 0 108 0 C108 76.56 108 153.12 108 232 C69.72 232 31.44 232 -8 232 C-8 227.71 -8 223.42 -8 219 C25.99 219 59.98 219 95 219 C95 204.15 95 189.3 95 174 C61.01 174 27.02 174 -8 174 C-8 169.38 -8 164.76 -8 160 C-5.36 160 -2.72 160 0 160 C0 107.2 0 54.4 0 0 Z " fill="#030303" transform="translate(126,2)"/>
<path d="M0 0 C35.31 0 70.62 0 107 0 C107 52.47 107 104.94 107 159 C109.31 159 111.62 159 114 159 C114 163.62 114 168.24 114 173 C80.34 173 46.68 173 12 173 C12 187.85 12 202.7 12 218 C45.66 218 79.32 218 114 218 C114 221.96 114 225.92 114 230 C76.38 230 38.76 230 0 230 C0 154.1 0 78.2 0 0 Z " fill="#000000" transform="translate(3,3)"/>
<path d="M0 0 C66.66 0 133.32 0 202 0 C202 13.86 202 27.72 202 42 C174.61 42 147.22 42 119 42 C118.67 32.1 118.34 22.2 118 12 C117.505 10.515 117.505 10.515 117 9 C112.2014801 7.80037002 106.75719563 6.66512093 102.15234375 8.89453125 C100.31524071 10.08972357 100.31524071 10.08972357 98 12 C97.566875 11.525625 97.13375 11.05125 96.6875 10.5625 C93.59846323 7.70228077 90.14904167 7.67662269 86.07421875 7.69921875 C82.65297043 8.19533197 80.66851932 9.86518454 78 12 C78 10.68 78 9.36 78 8 C76.68 8 75.36 8 74 8 C74 17.57 74 27.14 74 37 C75.65 37 77.3 37 79 37 C78.96072388 36.03960815 78.96072388 36.03960815 78.9206543 35.05981445 C78.81638719 32.14429498 78.75158247 29.22916802 78.6875 26.3125 C78.64560547 25.30509766 78.60371094 24.29769531 78.56054688 23.25976562 C78.43707504 15.77737256 78.43707504 15.77737256 81.296875 11.828125 C84.83472518 9.43547488 86.81073308 9.31448359 91 10 C93.66025453 12.06012578 94.86076868 13.21341787 95.45410156 16.56542969 C95.4331543 17.50805664 95.41220703 18.45068359 95.390625 19.421875 C95.37773438 20.44667969 95.36484375 21.47148437 95.3515625 22.52734375 C95.31804687 23.59082031 95.28453125 24.65429688 95.25 25.75 C95.23195313 26.82894531 95.21390625 27.90789062 95.1953125 29.01953125 C95.14821415 31.68058788 95.082456 34.33984254 95 37 C96.32 37 97.64 37 99 37 C98.96072388 36.03960815 98.96072388 36.03960815 98.9206543 35.05981445 C98.81638719 32.14429498 98.75158247 29.22916802 98.6875 26.3125 C98.64560547 25.30509766 98.60371094 24.29769531 98.56054688 23.25976562 C98.4372856 15.79013265 98.4372856 15.79013265 101.26171875 11.82421875 C105.36019086 9.09385288 107.16613809 9.37627588 112 10 C112.99 10.99 113.98 11.98 115 13 C115 22.57 115 32.14 115 42 C77.05 42 39.1 42 0 42 C0 28.14 0 14.28 0 0 Z M7 13 C4.05691327 17.62209359 4.26048651 22.71135808 5 28 C6.57737657 31.54438401 8.53937534 34.05582181 11.80078125 36.1640625 C14.60176297 37.22873406 16.94461317 37.3011776 19.9375 37.3125 C20.95714844 37.32925781 21.97679688 37.34601563 23.02734375 37.36328125 C26.42090962 36.94856164 28.2582786 36.00835885 31 34 C33.1477418 31.03759752 34 29.68553144 34 26 C31.59122743 26.11341534 31.59122743 26.11341534 29 27 C27.21030974 29.42672567 27.21030974 29.42672567 26 32 C25 33 25 33 22.8203125 33.1328125 C21.93085937 33.13023437 21.04140625 33.12765625 20.125 33.125 C19.24070312 33.12757813 18.35640625 33.13015625 17.4453125 33.1328125 C15 33 15 33 12 32 C9.43494586 27.67990882 9.41584317 22.87682446 10 18 C11.62400184 14.36532921 12.66113044 13.22591304 16 11 C22.97233202 10.44664032 22.97233202 10.44664032 26.4375 12.3125 C28 14 28 14 29 17 C30.32 17 31.64 17 33 17 C32.70179167 13.42150008 32.25754642 12.23773516 29.5625 9.75 C21.62882362 4.33187955 13.41307384 6.14681325 7 13 Z M39.625 13.5625 C37.32573759 18.42632433 37.21263393 22.70890002 38 28 C40.01440499 32.02880998 42.16276958 34.66977876 46 37 C51.83348443 37.83658498 57.25599283 37.8118654 62.625 35.3125 C66.75873918 31.28754343 68.44967424 27.91672249 68.5625 22.125 C68.43850106 16.82567692 67.39992902 14.0575037 63.703125 10.3046875 C55.32582533 3.88721482 46.42902828 6.2213116 39.625 13.5625 Z M141 11 C140.0311941 14.13265479 140.0311941 14.13265479 140 17 C141.32 17 142.64 17 144 17 C144.433125 15.7934375 144.433125 15.7934375 144.875 14.5625 C146 12 146 12 148 11 C155.46666667 10.64444444 155.46666667 10.64444444 159 13 C159.6875 16.125 159.6875 16.125 160 19 C158.91460937 19.08636719 157.82921875 19.17273438 156.7109375 19.26171875 C155.2655136 19.40250679 153.82020654 19.54449795 152.375 19.6875 C151.66214844 19.74099609 150.94929687 19.79449219 150.21484375 19.84960938 C144.66957808 20.43466034 141.89136323 21.97590811 138 26 C137.08333333 29 137.08333333 29 138 32 C140.172635 34.57285724 141.97993838 36.48996919 145 38 C151.14549022 38.51212418 154.03105639 37.99939364 159 34 C159.33 33.67 159.66 33.34 160 33 C160.391875 33.66 160.78375 34.32 161.1875 35 C162.85416667 37.29166667 162.85416667 37.29166667 165.6875 37.25 C166.450625 37.1675 167.21375 37.085 168 37 C168 36.01 168 35.02 168 34 C167.01 33.67 166.02 33.34 165 33 C165.00112793 32.39003174 165.00225586 31.78006348 165.00341797 31.15161133 C164.99126431 28.37080026 164.93356916 25.59270493 164.875 22.8125 C164.87757813 21.85279297 164.88015625 20.89308594 164.8828125 19.90429688 C164.81577055 14.79192447 164.81577055 14.79192447 162.79980469 10.22827148 C159.60687279 7.33512844 156.73405347 6.33408203 152.5 6.4375 C147.65187087 6.68188798 144.53621813 7.46378187 141 11 Z M173 10 C170.72842803 12.80643274 170.72842803 12.80643274 171 15.9375 C172.052036 19.15936025 172.9933176 20.41151036 175.90625 22.125 C179.63827898 23.6846539 183.54730896 24.5190262 187.48828125 25.38671875 C190 26 190 26 191 27 C191.04063832 28.66617115 191.042721 30.33388095 191 32 C187.04325819 33.97837091 182.28935312 33.70745646 178 33 C175.5625 30 175.5625 30 174 27 C172.68 27 171.36 27 170 27 C170.41434907 31.83407252 172.37793954 33.89537674 176 37 C180.63544003 38.54514668 185.47733683 38.98570728 190.109375 37.17578125 C193.66948366 35.21557254 193.66948366 35.21557254 196 32 C196.37310226 28.56745921 196.55431715 26.7290027 194.42578125 23.9296875 C190.48821583 20.79738909 185.94123122 20.24827006 181.1171875 19.125 C178 18 178 18 176.5703125 15.875 C176.38210937 15.25625 176.19390625 14.6375 176 14 C177.0625 12.5 177.0625 12.5 179 11 C182.85646386 10.7195299 186.30516081 10.81765146 190 12 C190.33 13.32 190.66 14.64 191 16 C192.32 16 193.64 16 195 16 C194.80037128 12.40668306 194.21261372 11.20171045 191.5625 8.6875 C185.40559066 5.77106926 178.44844219 5.4028769 173 10 Z " fill="#060606" transform="translate(17,177)"/>
<path d="M0 0 C77.88 0 155.76 0 236 0 C236 77.88 236 155.76 236 236 C158.12 236 80.24 236 0 236 C0 158.12 0 80.24 0 0 Z M126 2 C126 54.8 126 107.6 126 162 C120.72 162 115.44 162 110 162 C110 109.53 110 57.06 110 3 C74.69 3 39.38 3 3 3 C3 78.9 3 154.8 3 233 C40.62 233 78.24 233 117 233 C117.33 233.33 117.66 233.66 118 234 C156.28 234 194.56 234 234 234 C234 157.44 234 80.88 234 2 C198.36 2 162.72 2 126 2 Z M111 3 C111 55.14 111 107.28 111 161 C115.62 161 120.24 161 125 161 C125 108.86 125 56.72 125 3 C120.38 3 115.76 3 111 3 Z M115 176 C117 177 117 177 117 177 Z " fill="#E4E4E4" transform="translate(0,0)"/>
<path d="M0 0 C4.62 0 9.24 0 14 0 C14 52.14 14 104.28 14 158 C9.38 158 4.76 158 0 158 C0 105.86 0 53.72 0 0 Z " fill="#FE0606" transform="translate(111,3)"/>
<path d="M0 0 C33 0 66 0 100 0 C100 0.33 100 0.66 100 1 C67.66 1 35.32 1 2 1 C2 14.86 2 28.72 2 43 C39.95 43 77.9 43 117 43 C117 34.09 117 25.18 117 16 C117.33 16 117.66 16 118 16 C118 25.24 118 34.48 118 44 C119.485 44.495 119.485 44.495 121 45 C115.06 45 109.12 45 103 45 C103 48.3 103 51.6 103 55 C102.67 55 102.34 55 102 55 C102 51.7 102 48.4 102 45 C68.34 45 34.68 45 0 45 C0 30.15 0 15.3 0 0 Z " fill="#E4E4E4" transform="translate(15,176)"/>
<path d="M0 0 C3.02508145 1.73602105 5.41790069 3.83580137 7 7 C7.55258891 12.03671207 7.53929549 15.92140903 5.25 20.5 C2.21576314 23.87137429 0.58825037 24.79283691 -3.875 25.375 C-7.87153796 24.89541545 -9.90459308 23.53260567 -13 21 C-15.7412348 16.60279743 -15.79952871 12.02673992 -15 7 C-11.64675511 0.7796684 -6.87395175 -1.17329047 0 0 Z " fill="#060606" transform="translate(74,187)"/>
<path d="M0 0 C3.375 1.6875 3.375 1.6875 6 4 C6.78375 4.66 7.5675 5.32 8.375 6 C10.98970891 10.8271549 10.71924257 15.63837357 10 21 C7.81508523 25.61259784 5.51084756 27.74457622 1 30 C-3.96265818 30.74533039 -9.4696468 31.18083149 -14.109375 29.015625 C-17.71250387 26.12598699 -19.74594839 22.95560658 -20.3359375 18.4140625 C-20.41974948 12.42988703 -20.25612393 8.59213371 -16 4 C-11.0689115 -0.46146102 -6.38623612 -1.02970257 0 0 Z M-15 8 C-16.85506839 11.71013678 -16.45334699 15.95092823 -16 20 C-14.36469994 23.27060012 -13.0584308 25.22381741 -10.125 27.375 C-5.63356315 28.69601084 -2.89855304 28.48383625 1.25 26.25 C4.49855357 23.59209253 5.72236461 21.77102153 6.37109375 17.6328125 C6.489301 13.1687503 6.54314445 9.99264353 3.625 6.4375 C0.07285035 3.13907533 -2.00730949 2.60501683 -6.89453125 2.640625 C-10.61593453 3.27581814 -12.40312849 5.33979016 -15 8 Z " fill="#EFEFEF" transform="translate(75,184)"/>
<path d="M0 0 C3.23939656 1.73539102 5.42321134 3.42321134 8 6 C8 7.32 8 8.64 8 10 C6.68 10 5.36 10 4 10 C2.375 7.5625 2.375 7.5625 1 5 C-2.21694364 3.39152818 -5.52137222 3.38690851 -9 4 C-11.69105198 6.17574416 -13.45532928 7.91065856 -15 11 C-15.41258404 15.88384362 -15.56734751 20.6760463 -13 25 C-10.09458095 25.96847302 -8.03362546 26.19582812 -5 26.25 C-3.700625 26.28867188 -3.700625 26.28867188 -2.375 26.328125 C0.47284073 25.93467332 1.26092559 25.23441449 3 23 C4.17574711 20.90010348 4.17574711 20.90010348 5 19 C6.32 19 7.64 19 9 19 C8.58534283 23.83766699 6.5801385 25.85646376 3 29 C-1.18387819 31.0919391 -6.44383693 30.42881535 -11 30 C-15.45498552 27.8897437 -18.22604963 25.63198151 -20 21 C-20.65528913 15.709147 -20.67405257 11.42588044 -18.375 6.5625 C-12.82108762 0.57012086 -8.05999492 -1.33460955 0 0 Z " fill="#E8E8E8" transform="translate(42,184)"/>
<path d="M0 0 C0.66 0 1.32 0 2 0 C2 14.85 2 29.7 2 45 C-26.05 45 -54.1 45 -83 45 C-82.67 44.34 -82.34 43.68 -82 43 C-54.94 43 -27.88 43 0 43 C0 28.81 0 14.62 0 0 Z " fill="#E4E4E4" transform="translate(219,176)"/>
<path d="M0 0 C4.23458974 2.39390109 4.23458974 2.39390109 6 5 C6.86022435 8.60709394 6.88492886 12.11648271 6.875 15.8125 C6.895625 16.79154297 6.91625 17.77058594 6.9375 18.77929688 C6.98448056 21.18705066 7.004453 23.5918828 7 26 C7.99 26.33 8.98 26.66 10 27 C10 27.99 10 28.98 10 30 C7.6875 30.25 7.6875 30.25 5 30 C3.1875 28 3.1875 28 2 26 C1.38125 26.7425 1.38125 26.7425 0.75 27.5 C-1 29 -1 29 -5 29 C-5 28.34 -5 27.68 -5 27 C-4.21625 26.649375 -3.4325 26.29875 -2.625 25.9375 C0.9073692 23.33027511 1.01056529 21.0493171 1.73828125 16.86328125 C1.82464844 16.24839844 1.91101563 15.63351563 2 15 C1.34 15.165 0.68 15.33 0 15.5 C-3.73099794 16.12183299 -7.21873378 16.06408926 -11 16 C-10.67 15.34 -10.34 14.68 -10 14 C-7.27734375 13.3671875 -7.27734375 13.3671875 -3.9375 12.875 C-2.83277344 12.70742187 -1.72804687 12.53984375 -0.58984375 12.3671875 C0.69212891 12.18542969 0.69212891 12.18542969 2 12 C1.40138258 9.64828869 0.73075648 7.3140622 0 5 C-3.12706959 3.4364652 -6.57982443 3.60041513 -10 4 C-13.12474627 5.63473516 -13.12474627 5.63473516 -13.6875 8.125 C-13.790625 8.74375 -13.89375 9.3625 -14 10 C-15.32 10 -16.64 10 -18 10 C-17.82227527 6.09005601 -17.4321336 4.4321336 -14.625 1.625 C-9.78367571 -0.54524882 -5.2140726 -1.17902484 0 0 Z " fill="#EBEBEB" transform="translate(175,184)"/>
<path d="M0 0 C3.5625 1.6875 3.5625 1.6875 6 4 C6.875 6.75 6.875 6.75 7 9 C5.68 9 4.36 9 3 9 C2.67 7.68 2.34 6.36 2 5 C-1.69483919 3.81765146 -5.14353614 3.7195299 -9 4 C-10.94369738 5.35429841 -10.94369738 5.35429841 -12 7 C-11.56629354 9.00180963 -11.56629354 9.00180963 -10 11 C-7.30088284 12.02671159 -4.77777449 12.84134701 -2 13.5625 C5.74203822 15.61305732 5.74203822 15.61305732 8 19 C8.46857988 22.67054238 8.51209995 24.3232965 6.25 27.3125 C4.06388127 28.95208905 2.67438062 29.61794563 0 30 C0.375 28.0625 0.375 28.0625 1 26 C1.66 25.67 2.32 25.34 3 25 C3 23.35 3 21.7 3 20 C-1.2481659 18.37797302 -5.45517513 16.86255431 -9.8125 15.5625 C-12.54194733 14.65268422 -13.93615644 14.05633255 -16.125 12.125 C-17.30903789 9.2494794 -17.08854676 7.90279137 -16 5 C-11.27430262 -0.48790663 -6.98205104 -0.7698433 0 0 Z " fill="#E8E8E8" transform="translate(205,184)"/>
<path d="M0 0 C5.53266327 -0.28132186 8.32886698 -0.20306264 13 3 C16.00259517 3.33218192 16.00259517 3.33218192 17.6875 1.5 C21.14838981 -0.7449015 23.92425449 -0.20378728 28 0 C28 0.33 28 0.66 28 1 C26.88625 1.103125 25.7725 1.20625 24.625 1.3125 C23.42875 1.539375 22.2325 1.76625 21 2 C20.01 3.485 20.01 3.485 19 5 C18.34 5 17.68 5 17 5 C16.0268319 7.9195043 15.8070454 10.05444951 15.68359375 13.10546875 C15.64169922 14.08837891 15.59980469 15.07128906 15.55664062 16.08398438 C15.51732422 17.10814453 15.47800781 18.13230469 15.4375 19.1875 C15.39431641 20.22326172 15.35113281 21.25902344 15.30664062 22.32617188 C15.20055634 24.8839819 15.09849854 27.44188845 15 30 C13.68 30 12.36 30 11 30 C10.98541748 29.31897217 10.97083496 28.63794434 10.95581055 27.9362793 C10.88137304 24.85277785 10.78469917 21.77036433 10.6875 18.6875 C10.66494141 17.61564453 10.64238281 16.54378906 10.61914062 15.43945312 C10.58369141 14.41142578 10.54824219 13.38339844 10.51171875 12.32421875 C10.48553467 11.37635498 10.45935059 10.42849121 10.43237305 9.4519043 C9.93321127 6.62125396 9.28244014 5.69576642 7 4 C4.94636394 3.6393369 4.94636394 3.6393369 2.8125 3.8125 C1.554375 3.874375 0.29625 3.93625 -1 4 C-0.67 2.68 -0.34 1.36 0 0 Z " fill="#EDEDED" transform="translate(101,184)"/>
<path d="M0 0 C0.40877691 4.16952449 0.40933517 6.35870823 -1.875 9.9375 C-6.11395923 12.73521309 -10.03329424 13.01017744 -15 12 C-16.81640625 10.62890625 -16.81640625 10.62890625 -18 9 C-17.75546876 5.65807308 -17.39456443 4.39456443 -15 2 C-12.79296875 1.3671875 -12.79296875 1.3671875 -10.1875 0.875 C-8.90939453 0.62363281 -8.90939453 0.62363281 -7.60546875 0.3671875 C-5.03156189 0.004448 -2.59538412 -0.06523407 0 0 Z " fill="#080808" transform="translate(177,199)"/>
<path d="M0 0 C1.32 0 2.64 0 4 0 C4.33 0.99 4.66 1.98 5 3 C6.32 2.34 7.64 1.68 9 1 C9 1.99 9 2.98 9 4 C8.5155542 4.45157471 8.0311084 4.90314941 7.53198242 5.3684082 C5.43599602 7.60067547 5.57573727 9.07949042 5.48828125 12.10546875 C5.43510742 13.57983398 5.43510742 13.57983398 5.38085938 15.08398438 C5.34702148 16.62022461 5.34702148 16.62022461 5.3125 18.1875 C5.27833984 19.22326172 5.24417969 20.25902344 5.20898438 21.32617188 C5.12647358 23.8840066 5.05733428 26.44149723 5 29 C3.35 29 1.7 29 0 29 C0 19.43 0 9.86 0 0 Z " fill="#D5D5D5" transform="translate(91,185)"/>
<path d="M0 0 C1.58179615 -0.10867302 3.16577153 -0.18589827 4.75 -0.25 C5.63171875 -0.29640625 6.5134375 -0.3428125 7.421875 -0.390625 C10.91287137 0.13831384 11.8595707 1.21564701 14 4 C14.45410156 7.29980469 14.45410156 7.29980469 14.390625 11.171875 C14.38496521 11.8542926 14.37930542 12.53671021 14.37347412 13.23980713 C14.35115636 15.41059762 14.30097508 17.57971206 14.25 19.75 C14.22992876 21.2252365 14.21167907 22.70049899 14.1953125 24.17578125 C14.1513088 27.78439501 14.08231583 31.39203381 14 35 C13.01 35 12.02 35 11 35 C10.98541748 34.17274414 10.97083496 33.34548828 10.95581055 32.49316406 C10.8813414 28.74497119 10.7846754 24.99767003 10.6875 21.25 C10.66494141 19.94804687 10.64238281 18.64609375 10.61914062 17.3046875 C10.5659668 15.42910156 10.5659668 15.42910156 10.51171875 13.515625 C10.48553467 12.36352539 10.45935059 11.21142578 10.43237305 10.02441406 C9.96475885 6.75349105 9.28991862 5.3403697 7 3 C4.9683434 2.31149171 4.9683434 2.31149171 2.8125 2.25 C1.554375 2.1675 0.29625 2.085 -1 2 C-0.67 1.34 -0.34 0.68 0 0 Z " fill="#FBFBFB" transform="translate(122,185)"/>
<path d="M0 0 C1.6875 0.9375 1.6875 0.9375 2.6875 2.9375 C1.883125 3.164375 1.07875 3.39125 0.25 3.625 C-2.54008446 4.69107148 -2.54008446 4.69107148 -3.25 7.4375 C-3.270625 8.2625 -3.29125 9.0875 -3.3125 9.9375 C-0.30632731 12.94367269 2.51131598 12.53335316 6.6875 12.9375 C6.6875 13.5975 6.6875 14.2575 6.6875 14.9375 C7.3475 15.2675 8.0075 15.5975 8.6875 15.9375 C5.47668322 17.54290839 2.17039645 17.42213309 -1.3125 16.9375 C-6.8125 13.9375 -6.8125 13.9375 -8.3125 10.9375 C-8.75 8.125 -8.75 8.125 -8.3125 4.9375 C-6.11189412 2.11326966 -3.75071401 -0.10137065 0 0 Z " fill="#DCDCDC" transform="translate(163.3125,198.0625)"/>
<path d="M0 0 C33.66 0 67.32 0 102 0 C102 0.33 102 0.66 102 1 C68.34 1 34.68 1 0 1 C0 0.67 0 0.34 0 0 Z " fill="#E4E4E4" transform="translate(117,176)"/>
<path d="M0 0 C2.3125 0.1875 2.3125 0.1875 5 1 C5.37125 1.825 5.7425 2.65 6.125 3.5 C7.75883278 6.25133034 7.75883278 6.25133034 10.62890625 6.55078125 C13.42414846 6.78996545 16.19536034 6.94762133 19 7 C18.67 8.32 18.34 9.64 18 11 C12.26757558 11.34394547 7.90776219 11.38869294 3 8 C0.783548 5.04473066 0 3.71253164 0 0 Z " fill="#D0D0D0" transform="translate(187,204)"/>
</svg>
